<svg width="15" height="15" viewBox="0 0 15 15" fill="none" xmlns="http://www.w3.org/2000/svg">
<g id="Github_black">
<g id="Vector">
<path fill-rule="evenodd" clip-rule="evenodd" d="M7.5135 0.0562134C3.37958 0.0562134 0.0273895 3.46493 0.0273895 7.67014C0.0273895 11.0342 2.17239 13.8883 5.14685 14.8951C5.52098 14.9656 5.65834 14.7299 5.65834 14.5288C5.65834 14.3472 5.6514 13.7475 5.64817 13.1112C3.56553 13.5718 3.12607 12.2129 3.12607 12.2129C2.78553 11.3328 2.29487 11.0988 2.29487 11.0988C1.61565 10.6262 2.34607 10.6359 2.34607 10.6359C3.0978 10.6895 3.49363 11.4205 3.49363 11.4205C4.16131 12.5846 5.24491 12.248 5.6721 12.0535C5.73929 11.5615 5.9333 11.2254 6.14739 11.0354C4.48462 10.8428 2.73669 10.19 2.73669 7.27246C2.73669 6.44118 3.02912 5.76196 3.50801 5.22874C3.43028 5.03684 3.17404 4.26255 3.58053 3.21377C3.58053 3.21377 4.20917 3.00913 5.63974 3.99424C6.23689 3.82554 6.87731 3.74093 7.5135 3.73803C8.1497 3.74093 8.79061 3.82554 9.38888 3.99424C10.8177 3.00913 11.4455 3.21377 11.4455 3.21377C11.853 4.26255 11.5966 5.03684 11.5189 5.22874C11.9989 5.76196 12.2893 6.44118 12.2893 7.27246C12.2893 10.1969 10.5381 10.8408 8.87107 11.0293C9.13958 11.2656 9.37884 11.729 9.37884 12.4393C9.37884 13.458 9.37016 14.2779 9.37016 14.5288C9.37016 14.7314 9.50491 14.9688 9.88437 14.8941C12.8572 13.8861 14.9995 11.0331 14.9995 7.67014C14.9995 3.46493 11.6478 0.0562134 7.5135 0.0562134Z" fill="black"/>
<path fill-rule="evenodd" clip-rule="evenodd" d="M2.86276 10.9882C2.84627 11.0262 2.78776 11.0374 2.73446 11.0114C2.68016 10.9866 2.64966 10.935 2.66727 10.897C2.68338 10.8581 2.74202 10.8474 2.79619 10.8732C2.85061 10.8982 2.8816 10.9502 2.86276 10.9882Z" fill="black"/>
<path fill-rule="evenodd" clip-rule="evenodd" d="M3.16598 11.3322C3.13028 11.3658 3.06049 11.3502 3.01313 11.297C2.96417 11.2439 2.95499 11.1729 2.99119 11.1387C3.02801 11.1051 3.0957 11.1208 3.14479 11.1739C3.19375 11.2276 3.2033 11.2981 3.16598 11.3322Z" fill="black"/>
<path fill-rule="evenodd" clip-rule="evenodd" d="M3.46115 11.7707C3.41528 11.8031 3.34028 11.7727 3.29392 11.705C3.24805 11.6373 3.24805 11.5561 3.29491 11.5236C3.3414 11.491 3.41528 11.5203 3.46227 11.5875C3.50801 11.6562 3.50801 11.7375 3.46115 11.7707Z" fill="black"/>
<path fill-rule="evenodd" clip-rule="evenodd" d="M3.86553 12.1943C3.8245 12.2404 3.7371 12.228 3.67313 12.1652C3.60768 12.1038 3.58946 12.0167 3.63061 11.9707C3.67214 11.9245 3.76003 11.9375 3.8245 11.9998C3.88946 12.0611 3.90929 12.1488 3.86553 12.1943Z" fill="black"/>
<path fill-rule="evenodd" clip-rule="evenodd" d="M4.42338 12.4403C4.40528 12.5 4.32111 12.5271 4.23632 12.5017C4.15165 12.4756 4.09623 12.4058 4.11334 12.3455C4.13094 12.2855 4.21549 12.2572 4.3009 12.2844C4.38545 12.3103 4.44098 12.3797 4.42338 12.4403Z" fill="black"/>
<path fill-rule="evenodd" clip-rule="evenodd" d="M5.03603 12.486C5.03813 12.5488 4.96623 12.6008 4.87722 12.6018C4.78772 12.604 4.71532 12.5532 4.71433 12.4914C4.71433 12.428 4.78462 12.3764 4.87413 12.3749C4.96313 12.3731 5.03603 12.4236 5.03603 12.486Z" fill="black"/>
<path fill-rule="evenodd" clip-rule="evenodd" d="M5.60615 12.3872C5.61681 12.4485 5.55495 12.5114 5.46656 12.5281C5.37966 12.5443 5.29921 12.5065 5.28817 12.4457C5.27739 12.383 5.34036 12.32 5.42714 12.3038C5.51565 12.2881 5.59487 12.325 5.60615 12.3872Z" fill="black"/>
</g>
</g>
</svg>
