<svg width="14" height="12" viewBox="0 0 14 12" fill="none" xmlns="http://www.w3.org/2000/svg">
<g id="Group 14">
<path id="Vector" d="M0.95453 11.8775L3.1818 11.8775L3.1818 6.08209L-1.52588e-05 3.52527L-1.52609e-05 10.8548C-1.52611e-05 11.4199 0.427144 11.8775 0.95453 11.8775Z" fill="#4285F4"/>
<path id="Vector_2" d="M10.8182 11.8776L13.0454 11.8776C13.5728 11.8776 14 11.4199 14 10.8549L14 3.52533L10.8182 6.08215L10.8182 11.8776Z" fill="#34A853"/>
<path id="Vector_3" d="M10.8182 1.6503L10.8182 6.08212L14 3.5253L14 2.16166C14 0.897743 12.6533 0.175868 11.7091 0.934391L10.8182 1.6503Z" fill="#FBBC04"/>
<path id="Vector_4" fill-rule="evenodd" clip-rule="evenodd" d="M3.1818 6.08215L3.1818 1.65033L6.99998 4.71851L10.8182 1.65033L10.8182 6.08215L6.99998 9.15033L3.1818 6.08215Z" fill="#EA4335"/>
<path id="Vector_5" d="M-1.52592e-05 2.16166L-1.52596e-05 3.5253L3.1818 6.08212L3.1818 1.6503L2.29089 0.934391C1.34669 0.175868 -1.52589e-05 0.897743 -1.52592e-05 2.16166Z" fill="#C5221F"/>
</g>
</svg>
