<svg width="148" height="37" viewBox="0 0 148 37" fill="none" xmlns="http://www.w3.org/2000/svg">
<g id="Group 17">
<g id="Group 70">
<ellipse id="Ellipse 5" cx="17.1526" cy="17.9881" rx="17.1526" ry="17.9881" transform="matrix(1 0.000119295 0.000113754 1 58.3093 0.0135498)" fill="#537FE7"/>
<g id="Group">
<path id="Vector" d="M88.9093 23.9135H88.8093H62.4093H62.3093V24.0135C62.3093 24.0135 62.7093 26.5135 65.8093 26.5135H85.5093C88.6093 26.5135 89.0093 24.1135 89.0093 24.0135C88.9093 24.0135 88.9093 24.0135 88.9093 23.9135ZM77.5093 25.7135H73.5093V24.8135H77.5093V25.7135Z" fill="white"/>
<path id="Vector_2" d="M65.1093 22.9135H86.0093C86.3093 22.9135 86.5093 22.7135 86.5093 22.4135V9.51355C86.5093 9.21355 86.3093 9.01355 86.0093 9.01355H65.1093C64.8093 9.01355 64.6093 9.21355 64.6093 9.51355V22.4135C64.5093 22.7135 64.8093 22.9135 65.1093 22.9135ZM66.5093 10.9135H84.7093V21.0135H66.5093V10.9135Z" fill="white"/>
</g>
</g>
<ellipse id="Ellipse 4" cx="17.1526" cy="17.9881" rx="17.1526" ry="17.9881" transform="matrix(1 0.000119295 0.000113754 1 0.309265 0.0133362)" fill="#537FE7"/>
<ellipse id="Ellipse 5_2" cx="17.1526" cy="17.9881" rx="17.1526" ry="17.9881" transform="matrix(1 0.000119295 0.000113754 1 113.309 0.0135498)" fill="#537FE7"/>
<path id="running 1 (Traced)" fill-rule="evenodd" clip-rule="evenodd" d="M136.232 8.0609C135.289 8.37425 134.727 9.25799 134.871 10.203C134.97 10.8518 135.359 11.3787 135.953 11.6658C136.266 11.8174 136.29 11.8219 136.77 11.8219C137.251 11.8219 137.275 11.8174 137.588 11.6658C138.171 11.3836 138.565 10.8588 138.671 10.2197C138.81 9.38983 138.366 8.55425 137.588 8.18074C137.293 8.03897 137.229 8.02482 136.835 8.01476C136.564 8.00782 136.341 8.02495 136.232 8.0609ZM130.337 8.98991C130.017 9.07484 129.788 9.28026 127.921 11.1607C126.101 12.9931 125.973 13.1323 125.887 13.3664C125.837 13.5037 125.796 13.702 125.796 13.8071C125.796 14.2357 126.115 14.7558 126.505 14.965C126.758 15.1007 127.42 15.1003 127.669 14.9643C127.763 14.9126 128.499 14.2086 129.304 13.4C130.108 12.5914 130.781 11.9298 130.799 11.9298C130.817 11.9298 131.036 12.0783 131.285 12.2598L131.739 12.5898L132.479 11.8557C132.967 11.3727 133.306 11.0732 133.471 10.9803C133.675 10.8651 133.711 10.829 133.664 10.7851C133.545 10.6725 131.361 9.17569 131.185 9.08589C130.983 8.98296 130.548 8.93376 130.337 8.98991ZM121.111 9.94361C120.781 10.0243 120.571 10.308 120.604 10.6293C120.626 10.8491 120.734 11.0107 120.938 11.1314C121.078 11.214 121.162 11.2177 122.87 11.2177C124.579 11.2177 124.662 11.214 124.802 11.1314C125.038 10.9922 125.129 10.8352 125.129 10.5704C125.129 10.3056 125.038 10.1486 124.802 10.0094C124.663 9.92738 124.571 9.92267 122.956 9.91555C122.021 9.91141 121.191 9.92406 121.111 9.94361ZM134.615 11.8912C134.507 11.9074 134.342 11.9601 134.249 12.0085C134.149 12.0609 132.965 13.2186 131.321 14.8722C128.706 17.5011 128.556 17.6611 128.469 17.8977C128.354 18.214 128.354 18.4631 128.47 18.7791C128.554 19.0112 128.672 19.1406 130.127 20.6049C130.988 21.4716 131.692 22.1996 131.692 22.2225C131.692 22.2455 130.842 23.1191 129.804 24.1638C128.035 25.9424 127.909 26.0791 127.824 26.3131C127.774 26.4504 127.733 26.6487 127.733 26.7538C127.733 27.1824 128.051 27.7025 128.441 27.9117C128.694 28.0473 129.356 28.047 129.605 27.9111C129.703 27.8579 130.834 26.7538 132.215 25.365C134.515 23.0505 134.657 22.8989 134.743 22.6631C134.858 22.3468 134.858 22.0977 134.743 21.7817C134.658 21.5496 134.541 21.4202 133.086 19.956C132.225 19.0892 131.52 18.3608 131.52 18.3373C131.52 18.3138 131.973 17.8406 132.527 17.2857L133.534 16.2768L133.55 16.8113C133.57 17.423 133.646 17.657 133.921 17.9429C134.13 18.1596 134.332 18.2601 134.667 18.3147C135.035 18.3746 139.84 18.3746 140.208 18.3147C140.543 18.2601 140.745 18.1596 140.953 17.9429C141.54 17.3332 141.378 16.2814 140.638 15.8983C140.357 15.7526 139.983 15.7281 138.029 15.7278L136.125 15.7275V14.3515C136.125 12.7688 136.109 12.6692 135.793 12.3175C135.493 11.9824 135.059 11.8253 134.615 11.8912ZM119.82 12.5329C119.49 12.6136 119.28 12.8973 119.313 13.2186C119.335 13.4385 119.442 13.6 119.647 13.7208C119.787 13.8033 119.87 13.8071 121.579 13.8071C123.288 13.8071 123.371 13.8033 123.511 13.7208C123.747 13.5816 123.838 13.4245 123.838 13.1597C123.838 12.895 123.747 12.7379 123.511 12.5987C123.372 12.5167 123.28 12.512 121.665 12.5049C120.73 12.5007 119.9 12.5134 119.82 12.5329ZM121.111 15.1223C120.781 15.203 120.571 15.4867 120.604 15.8079C120.626 16.0278 120.734 16.1893 120.938 16.3101C121.078 16.3927 121.162 16.3964 122.87 16.3964C124.579 16.3964 124.662 16.3927 124.802 16.3101C125.038 16.1709 125.129 16.0138 125.129 15.7491C125.129 15.4843 125.038 15.3272 124.802 15.188C124.663 15.1061 124.571 15.1013 122.956 15.0942C122.021 15.0901 121.191 15.1027 121.111 15.1223ZM123.66 22.5569C120.334 25.8966 120.164 26.0751 120.078 26.3131C120.028 26.4504 119.987 26.6487 119.987 26.7538C119.987 27.1824 120.305 27.7025 120.695 27.9117C120.948 28.0474 121.61 28.047 121.859 27.9109C121.957 27.857 123.464 26.3781 125.385 24.4504L128.739 21.084L128.155 20.4818C127.663 19.9744 127.543 19.8239 127.394 19.5248C127.296 19.3297 127.217 19.1431 127.217 19.1102C127.217 19.0774 127.202 19.0505 127.184 19.0505C127.166 19.0505 125.58 20.6284 123.66 22.5569Z" fill="white"/>
<g id="Group 14">
<path id="Vector_3" d="M24.0322 9.967L10.8941 9.96543C10.6037 9.9654 10.3252 10.0863 10.1199 10.3016C9.91462 10.5169 9.79931 10.809 9.79934 11.1135L9.80091 24.8916C9.80094 25.1961 9.91632 25.4881 10.1217 25.7035C10.327 25.9188 10.6055 26.0398 10.8959 26.0399L24.034 26.0414C24.3244 26.0415 24.6029 25.9205 24.8082 25.7053C25.0135 25.4899 25.1288 25.1979 25.1287 24.8934L25.1272 11.1153C25.1271 10.8108 25.0118 10.5187 24.8064 10.3034C24.6011 10.088 24.3226 9.96703 24.0322 9.967ZM24.0339 24.8933L10.8958 24.8917L10.8942 11.1136L24.0323 11.1152L24.0339 24.8933Z" fill="white"/>
<path id="Vector_4" d="M15.6033 20.9139C15.7032 20.9817 15.8178 21.0221 15.9364 21.0311C16.0551 21.0402 16.174 21.0176 16.2822 20.9656L21.0609 18.6698C21.1858 18.6108 21.2917 18.5152 21.366 18.3945C21.4403 18.2738 21.4798 18.1332 21.4798 17.9896C21.4798 17.8459 21.4403 17.7053 21.3659 17.5846C21.2916 17.464 21.1856 17.3683 21.0607 17.3092L16.2815 15.0123C16.1719 14.9598 16.0514 14.9373 15.9313 14.947C15.8112 14.9566 15.6953 14.9981 15.5947 15.0675C15.494 15.1369 15.4118 15.232 15.3558 15.3438C15.2998 15.4556 15.2717 15.5805 15.2743 15.7069L15.2748 20.2995C15.2767 20.4225 15.3076 20.543 15.365 20.6503C15.4224 20.7575 15.5043 20.8481 15.6033 20.9139ZM16.1502 15.9768L20.3711 18.0038L16.1507 20.0183L16.1502 15.9768Z" fill="white"/>
<path id="Vector_5" d="M11.9892 11.6878L13.084 11.6879L13.0842 13.4102L11.9894 13.4101L11.9892 11.6878Z" fill="white"/>
<path id="Vector_6" d="M15.274 11.6882L16.3689 11.6884L16.3691 13.4106L15.2742 13.4105L15.274 11.6882Z" fill="white"/>
<path id="Vector_7" d="M18.5588 11.6887L19.6537 11.6888L19.6539 13.4111L18.559 13.4109L18.5588 11.6887Z" fill="white"/>
<path id="Vector_8" d="M21.8428 11.689L22.9377 11.6892L22.9379 13.4114L21.843 13.4113L21.8428 11.689Z" fill="white"/>
<path id="Vector_9" d="M11.9907 22.5955L13.0855 22.5956L13.0857 24.3179L11.9909 24.3178L11.9907 22.5955Z" fill="white"/>
<path id="Vector_10" d="M15.2756 22.5959L16.3704 22.596L16.3706 24.3182L15.2757 24.3181L15.2756 22.5959Z" fill="white"/>
<path id="Vector_11" d="M18.5595 22.5963L19.6544 22.5964L19.6546 24.3186L18.5597 24.3185L18.5595 22.5963Z" fill="white"/>
<path id="Vector_12" d="M21.8444 22.5966L22.9392 22.5967L22.9394 24.319L21.8446 24.3189L21.8444 22.5966Z" fill="white"/>
</g>
</g>
</svg>
