<svg width="35" height="36" viewBox="0 0 35 36" fill="none" xmlns="http://www.w3.org/2000/svg">
<g id="Group 71">
<ellipse id="Ellipse 1" cx="17.1526" cy="17.9881" rx="17.1526" ry="17.9881" transform="matrix(1 0.000119295 0.000113754 1 -1.14441e-05 6.10352e-05)" fill="#537FE7"/>
<path id="Vector" d="M9.80773 17.9894C9.80749 15.9466 10.5811 13.9876 11.9583 12.5432C13.3355 11.0989 15.2035 10.2877 17.1515 10.2879C19.0994 10.2881 20.9676 11.0998 22.3451 12.5445C23.7227 13.9891 24.4967 15.9483 24.4969 17.9911L24.4971 19.0915L20.8248 19.091C20.6856 19.091 20.5522 19.149 20.4538 19.2521C20.3554 19.3553 20.3002 19.4952 20.3002 19.6411L20.301 26.2432C20.301 26.3891 20.3563 26.529 20.4547 26.6322C20.5531 26.7354 20.6865 26.7934 20.8256 26.7934L23.4487 26.7937C24.0053 26.7938 24.539 26.562 24.9325 26.1493C25.326 25.7367 25.547 25.1769 25.5469 24.5933L25.5462 17.9913C25.5459 15.6566 24.6613 13.4175 23.087 11.7665C21.5126 10.1155 19.3775 9.18782 17.1513 9.18756C14.9251 9.18729 12.7902 10.1145 11.2163 11.7651C9.64233 13.4157 8.75823 15.6546 8.7585 17.9893L8.75925 24.5913C8.75931 25.1749 8.98046 25.7347 9.37405 26.1475C9.76763 26.5602 10.3014 26.7921 10.858 26.7922L13.481 26.7925C13.6202 26.7925 13.7536 26.7346 13.852 26.6314C13.9503 26.5283 14.0056 26.3883 14.0056 26.2424L14.0048 19.6404C14.0048 19.4945 13.9495 19.3545 13.8511 19.2513C13.7527 19.1481 13.6193 19.0902 13.4802 19.0902L9.80785 19.0897L9.80773 17.9894Z" fill="white"/>
</g>
</svg>
