<svg width="16" height="16" viewBox="0 0 16 16" fill="none" xmlns="http://www.w3.org/2000/svg">
<g id="Viber">
<path id="Oval" d="M7.53672 0.0367432C11.6789 0.0367432 15.0367 3.39461 15.0367 7.53674C15.0367 11.6789 11.6789 15.0367 7.53672 15.0367C3.39458 15.0367 0.0367203 11.6789 0.0367203 7.53674C0.0367203 3.39461 3.39458 0.0367432 7.53672 0.0367432Z" fill="black"/>
<path id="Path" d="M9.53488 6.58627C9.4984 6.28992 9.40732 6.05723 9.24556 5.85112C9.03551 5.58572 8.76709 5.4268 8.36969 5.33252C8.11071 5.26969 8.00607 5.2769 7.9124 5.36246C7.82515 5.44262 7.80812 5.60332 7.87479 5.70738C7.92168 5.78292 7.97578 5.80997 8.12623 5.83951C8.32657 5.87637 8.46503 5.92421 8.59098 5.99622C8.8583 6.15058 8.98278 6.39212 8.99612 6.78316C9.00235 6.96677 9.01821 7.02322 9.08234 7.08834C9.2012 7.20738 9.41273 7.18423 9.50246 7.04178C9.53539 6.98809 9.54041 6.96472 9.54388 6.84004C9.54618 6.76285 9.54286 6.64796 9.53488 6.58627Z" fill="white"/>
<path id="Path_2" d="M10.5819 6.9204C10.5291 6.01248 10.174 5.28201 9.53844 4.76806C9.18035 4.47928 8.74751 4.2807 8.27305 4.18413C8.09925 4.14959 7.77927 4.12159 7.72437 4.13761C7.67256 4.15244 7.5993 4.20853 7.56664 4.25925C7.53211 4.31426 7.52432 4.43707 7.55378 4.50811C7.60133 4.62687 7.68979 4.66883 7.93752 4.6905C8.31943 4.72391 8.71334 4.85809 9.01096 5.05673C9.35076 5.28289 9.62086 5.59224 9.7956 5.95574C9.94658 6.26807 10.0394 6.71816 10.0369 7.12122C10.036 7.267 10.0585 7.34932 10.1171 7.40951C10.2056 7.50206 10.3346 7.52229 10.4485 7.46082C10.5746 7.39448 10.6041 7.27801 10.5819 6.9204Z" fill="white"/>
<path id="Path_3" d="M11.7405 10.4168C11.7228 10.3649 11.6814 10.2849 11.6517 10.2389C11.4652 9.95728 10.4631 9.17304 9.96281 8.91657C9.67714 8.76982 9.46547 8.72091 9.30856 8.76684C9.13982 8.8143 9.051 8.89285 8.76828 9.2442C8.65431 9.38504 8.53737 9.51698 8.50629 9.53772C8.42931 9.59109 8.27833 9.6341 8.17176 9.6341C7.92456 9.6326 7.47606 9.4725 7.13116 9.26198C6.86325 9.09893 6.51985 8.80689 6.25636 8.5178C5.9455 8.17832 5.73386 7.87887 5.56657 7.54086C5.35048 7.10651 5.29571 6.84114 5.38599 6.64693C5.4082 6.59802 5.43781 6.54614 5.45111 6.52981C5.46444 6.51501 5.60359 6.40085 5.75751 6.27632C6.05949 6.03617 6.10833 5.98132 6.16458 5.81677C6.23563 5.60773 6.2164 5.39426 6.10686 5.17931C6.02248 5.01623 5.80193 4.66045 5.64207 4.43067C5.4304 4.12826 4.90344 3.48191 4.79833 3.39442C4.60887 3.24026 4.36614 3.21356 4.09819 3.31735C3.81549 3.42706 3.28556 3.854 3.05908 4.15198C2.85481 4.42178 2.77639 4.61301 2.76453 4.86503C2.75418 5.07256 2.77194 5.15855 2.88147 5.42392C3.73852 7.50528 5.01741 9.16711 6.77444 10.4865C7.69217 11.1758 8.64394 11.7006 9.63124 12.0594C10.207 12.2684 10.4572 12.2788 10.7518 12.1068C10.8761 12.0327 11.184 11.7169 11.3557 11.4872C11.6399 11.1047 11.745 10.9283 11.7746 10.7874C11.7953 10.6911 11.779 10.5236 11.7405 10.4168Z" fill="white"/>
<path id="Path_4" d="M11.6478 7.1289C11.6288 6.61532 11.5424 6.19407 11.3621 5.7244C11.1841 5.26241 11.0039 4.96093 10.6637 4.55317C10.342 4.17085 10.0921 3.95256 9.69587 3.70956C9.14303 3.371 8.47022 3.14696 7.71622 3.05273C7.45908 3.0198 7.40091 3.02215 7.32202 3.07479C7.16915 3.1745 7.17119 3.42321 7.32454 3.52143C7.37531 3.55268 7.42035 3.56406 7.62603 3.59098C7.94178 3.63349 8.1448 3.67355 8.38571 3.73928C9.33041 3.99753 10.0569 4.52538 10.5426 5.30897C10.949 5.96209 11.1177 6.61526 11.0938 7.44947C11.0854 7.73149 11.0915 7.78112 11.1346 7.84888C11.2172 7.97518 11.4349 8.00015 11.5466 7.89535C11.6161 7.83149 11.6292 7.78353 11.6429 7.54216C11.6494 7.41624 11.6508 7.23036 11.6478 7.1289Z" fill="white"/>
</g>
</svg>
